<svg xmlns="http://www.w3.org/2000/svg" width="159.62" height="35" viewBox="0 0 159.62 35"><rect class="svg__rect" x="0" y="0" width="90.55" height="35" fill="#E9690E"/><rect class="svg__rect" x="88.55" y="0" width="71.07000000000001" height="35" fill="#3BC4F3"/><path class="svg__text" d="M15.69 22L14.22 22L14.22 13.47L16.14 13.47L18.60 20.01L21.06 13.47L22.97 13.47L22.97 22L21.49 22L21.49 19.19L21.64 15.43L19.12 22L18.06 22L15.55 15.43L15.69 19.19L15.69 22ZM33.29 22L27.71 22L27.71 13.47L33.25 13.47L33.25 14.66L29.19 14.66L29.19 17.02L32.70 17.02L32.70 18.19L29.19 18.19L29.19 20.82L33.29 20.82L33.29 22ZM38.87 22L36.90 13.47L38.37 13.47L39.69 19.88L41.32 13.47L42.56 13.47L44.18 19.89L45.49 13.47L46.96 13.47L44.99 22L43.57 22L41.95 15.77L40.29 22L38.87 22ZM52.41 22L50.45 13.47L51.92 13.47L53.24 19.88L54.87 13.47L56.11 13.47L57.72 19.89L59.04 13.47L60.51 13.47L58.54 22L57.12 22L55.50 15.77L53.84 22L52.41 22ZM66.14 22L64.67 22L64.67 13.47L66.14 13.47L66.14 22ZM72.64 14.66L70.00 14.66L70.00 13.47L76.77 13.47L76.77 14.66L74.11 14.66L74.11 22L72.64 22L72.64 14.66Z" fill="#3DD6E2"/><path class="svg__text" d="M107.28 22L102.74 22L102.74 13.60L107.04 13.60Q108.64 13.60 109.48 14.19Q110.33 14.79 110.33 15.79L110.33 15.79Q110.33 16.39 110.03 16.87Q109.73 17.34 109.19 17.62L109.19 17.62Q109.92 17.87 110.32 18.41Q110.73 18.94 110.73 19.70L110.73 19.70Q110.73 20.80 109.84 21.40Q108.95 22 107.28 22L107.28 22ZM105.09 18.58L105.09 20.28L107.09 20.28Q108.33 20.28 108.33 19.43L108.33 19.43Q108.33 18.58 107.09 18.58L107.09 18.58L105.09 18.58ZM105.09 15.31L105.09 16.94L106.72 16.94Q107.92 16.94 107.92 16.12L107.92 16.12Q107.92 15.31 106.72 15.31L106.72 15.31L105.09 15.31ZM121.83 22L115.45 22L115.45 13.60L117.83 13.60L117.83 20.11L121.83 20.11L121.83 22ZM125.82 17.80L125.82 17.80Q125.82 16.55 126.43 15.55Q127.03 14.56 128.09 14.00Q129.16 13.43 130.49 13.43L130.49 13.43Q131.82 13.43 132.88 14.00Q133.94 14.56 134.55 15.55Q135.16 16.55 135.16 17.80L135.16 17.80Q135.16 19.05 134.55 20.04Q133.94 21.04 132.88 21.60Q131.82 22.17 130.49 22.17L130.49 22.17Q129.16 22.17 128.09 21.60Q127.03 21.04 126.43 20.04Q125.82 19.05 125.82 17.80ZM128.22 17.80L128.22 17.80Q128.22 18.51 128.52 19.05Q128.82 19.60 129.34 19.90Q129.86 20.20 130.49 20.20L130.49 20.20Q131.13 20.20 131.64 19.90Q132.16 19.60 132.46 19.05Q132.76 18.51 132.76 17.80L132.76 17.80Q132.76 17.09 132.46 16.54Q132.16 16 131.64 15.70Q131.13 15.40 130.49 15.40L130.49 15.40Q129.85 15.40 129.34 15.70Q128.82 16 128.52 16.54Q128.22 17.09 128.22 17.80ZM139.46 17.80L139.46 17.80Q139.46 16.54 140.06 15.54Q140.65 14.55 141.72 13.99Q142.79 13.43 144.13 13.43L144.13 13.43Q145.31 13.43 146.25 13.83Q147.19 14.22 147.81 14.97L147.81 14.97L146.30 16.33Q145.45 15.40 144.28 15.40L144.28 15.40Q144.26 15.40 144.26 15.40L144.26 15.40Q143.18 15.40 142.52 16.06Q141.86 16.71 141.86 17.80L141.86 17.80Q141.86 18.50 142.16 19.04Q142.46 19.59 143.00 19.89Q143.54 20.20 144.23 20.20L144.23 20.20Q144.92 20.20 145.52 19.93L145.52 19.93L145.52 17.62L147.61 17.62L147.61 21.10Q146.89 21.61 145.96 21.89Q145.03 22.17 144.09 22.17L144.09 22.17Q142.77 22.17 141.71 21.61Q140.65 21.05 140.06 20.05Q139.46 19.06 139.46 17.80Z" fill="#F96D0B" x="101.55"/></svg>